<svg width="138" height="138" viewBox="0 0 138 138" fill="none" xmlns="http://www.w3.org/2000/svg">
<path d="M63.3606 92.2762C60.6214 94.1139 57.8128 94.4722 55.0736 92.3571C52.3575 90.2651 52.1032 87.3988 53.155 83.8852C49.5952 84.6596 46.3937 84.6364 44.2901 81.4696C42.4871 78.7535 42.9263 76.0952 44.7062 73.5293C44.9258 73.3097 45.1454 73.1017 45.365 72.8821C46.6364 71.969 48.1158 71.0791 49.5952 71.3796C52.2997 71.9228 51.8027 70.6746 51.953 68.7675C52.1495 66.1323 51.8721 65.0574 48.9248 65.4851C47.8499 65.6353 46.6132 64.6876 45.4575 64.2368C45.1454 63.9248 44.8333 63.6127 44.5213 63.3122C42.961 60.6886 42.4755 58.0187 44.371 55.372C46.4745 52.4363 49.4449 52.182 53.0972 53.1528C52.1726 49.5584 52.3113 46.403 55.4666 44.3111C58.1711 42.5312 60.8294 42.9704 63.3721 44.7387C63.5917 44.9583 63.7998 45.1779 64.0194 45.3975C64.5395 46.6804 65.6606 48.0558 65.4641 49.2116C64.944 52.3322 66.4234 51.7659 68.5848 51.9393C71.1853 52.1473 71.4049 51.4423 71.3355 49.2232C71.2893 47.9634 72.2833 46.6804 72.8034 45.3975C73.0345 45.1664 73.2657 44.9236 73.4968 44.6925C76.2245 42.7739 79.0331 42.4503 81.7723 44.5307C84.4999 46.6111 84.8235 49.4543 83.7718 52.9448C87.2391 52.3438 90.4753 52.1935 92.602 55.3951C94.405 58.1112 93.9889 60.7695 92.2784 63.3584C92.0125 63.6243 91.7467 63.8785 91.4924 64.1444C90.198 64.6529 88.8457 65.6931 87.6205 65.5544C84.9738 65.2539 85.0085 66.1901 85.0431 68.4323C85.0778 70.6052 84.9507 71.6454 87.6321 71.3449C88.8573 71.2062 90.2095 72.258 91.4924 72.7665C91.7583 73.0324 92.0241 73.2982 92.3015 73.564C94.1276 76.2917 94.4859 79.1003 92.394 81.8163C90.3135 84.5093 87.5165 84.937 83.9914 83.7812C84.708 87.4103 84.5924 90.7159 81.2406 92.7963C78.6632 94.3913 76.1205 93.9521 73.6702 92.3918C73.335 92.0566 73.0114 91.7214 72.6762 91.3978C71.3818 89.4792 71.0466 87.341 71.4049 85.1103C67.7179 84.6942 64.6551 84.7983 65.0365 89.6872C65.0827 90.2767 64.4355 90.9124 64.1003 91.5249C63.846 91.7908 63.6033 92.0335 63.3606 92.2762ZM81.021 81.0304C78.9059 79.7475 83.3441 75.7138 78.6285 75.6907C76.2245 75.6791 75.6581 76.4997 75.6813 78.7304C75.7159 83.4113 79.6919 78.9846 81.021 81.0304ZM55.9982 81.0882C57.3043 79.3198 62.0083 83.5153 61.1877 77.7595C60.5289 73.1826 57.6279 76.7887 56.0214 75.6098C56.6802 77.5168 55.9867 79.1118 55.9982 81.0882ZM81.1828 55.9961C75.6004 56.574 75.7391 56.5971 75.5772 57.8916C75.034 62.3876 78.432 60.8619 81.0672 61.567C80.2813 59.475 80.8939 57.7644 81.1828 55.9961ZM55.952 55.7534C56.2641 57.7875 56.4605 59.5328 56.1485 61.4976C57.6857 60.1222 60.7716 63.5203 61.2917 58.9896C61.9274 53.384 57.2003 57.8338 55.952 55.7534ZM66.3078 68.1318C66.4003 69.3223 65.4988 71.0329 67.9375 70.5474C69.1742 70.3047 70.7692 71.1831 70.5611 68.6173C70.4224 66.872 70.33 66.1901 68.3305 66.3172C66.828 66.4097 65.7531 66.2595 66.3078 68.1318Z" fill="#FFE8C8"/>
<path d="M64.0421 45.3973C63.8225 45.1777 63.6145 44.9581 63.3949 44.7385C63.3602 44.4611 63.3949 44.1491 63.2909 43.9063C61.8692 40.7742 61.823 37.8153 64.7356 35.5269C67.105 33.6661 69.7748 33.6545 72.1557 35.5038C75.0799 37.7691 75.0452 40.7395 73.6582 43.8717C73.5542 44.1144 73.5773 44.4264 73.5427 44.7038C73.3115 44.935 73.0804 45.1777 72.8492 45.4088C69.9019 46.5993 66.9663 46.5762 64.0421 45.3973Z" fill="#FFE8C8"/>
<path d="M92.3013 73.5752C92.0354 73.3094 91.7696 73.0435 91.4922 72.7777C90.2555 69.8998 90.2787 67.0335 91.4922 64.1556C91.7581 63.8897 92.0239 63.6354 92.2782 63.3696C93.2143 63.0807 94.1274 62.7224 95.0867 62.5374C97.8028 62.0173 100.137 62.6762 101.698 65.0917C103.119 67.2993 103.119 69.6224 101.709 71.83C100.161 74.2456 97.8144 74.9159 95.0983 74.3958C94.1505 74.234 93.2375 73.8642 92.3013 73.5752Z" fill="#FFE8C8"/>
<path d="M72.6643 91.4095C72.9994 91.7446 73.323 92.0798 73.6582 92.4034C73.8431 93.0738 74.0281 93.7557 74.2014 94.4261C74.9642 97.2924 74.502 99.8467 71.9592 101.615C69.6246 103.233 67.1049 103.198 64.8049 101.523C62.3084 99.6964 61.9039 97.1306 62.7476 94.2873C62.9441 93.617 63.1637 92.9466 63.3602 92.2763C63.6029 92.0336 63.8456 91.7793 64.0883 91.5366C66.9315 90.3346 69.7979 90.3692 72.6643 91.4095Z" fill="#FFE8C8"/>
<path d="M45.3756 72.8823C45.156 73.1019 44.9364 73.3099 44.7168 73.5295C41.2841 74.6275 37.8399 75.6099 35.2856 71.9114C33.7946 69.7616 33.76 67.4154 35.1816 65.1963C37.6203 61.4169 41.0761 62.249 44.5434 63.2893C44.8555 63.6013 45.1676 63.9134 45.4796 64.2139C46.6007 67.1264 46.4967 70.0159 45.3756 72.8823Z" fill="#FFE8C8"/>
<path d="M102.484 87.1335C102.553 90.3119 99.6868 93.1782 96.5083 93.1205C93.4917 93.0627 90.7988 90.3812 90.741 87.3531C90.6716 84.1631 93.5264 81.3083 96.7164 81.3661C99.7214 81.4354 102.414 84.1169 102.484 87.1335Z" fill="#FFE8C8"/>
<path d="M40.3366 93.0737C37.1928 93.1083 34.3612 90.2304 34.4652 87.0982C34.5576 84.1047 37.2391 81.4696 40.2325 81.4349C43.3763 81.4002 46.2079 84.2781 46.1039 87.4103C46.023 90.4038 43.33 93.039 40.3366 93.0737Z" fill="#FFE8C8"/>
<path d="M55.5117 96.4255C55.6388 99.5693 52.8303 102.47 49.6634 102.47C46.6699 102.47 43.9538 99.8351 43.8267 96.8416C43.6995 93.6979 46.5081 90.7969 49.6749 90.7969C52.68 90.7969 55.3961 93.4205 55.5117 96.4255Z" fill="#FFE8C8"/>
<path d="M96.2769 55.5567C93.0869 55.3602 90.4517 52.2974 90.7754 49.1652C91.0874 46.1371 93.9538 43.6637 96.9241 43.8486C100.114 44.0451 102.749 47.1195 102.426 50.2401C102.125 53.2683 99.2588 55.7416 96.2769 55.5567Z" fill="#FFE8C8"/>
<path d="M40.0827 43.8837C43.0415 43.7681 45.8501 46.2877 46.0928 49.2928C46.3471 52.4018 43.6541 55.4069 40.4872 55.534C37.3551 55.6612 34.4541 52.8642 34.4656 49.7089C34.4772 46.7154 37.0892 43.9993 40.0827 43.8837Z" fill="#FFE8C8"/>
<path d="M93.0758 40.3468C93.0643 43.5252 90.1401 46.3222 86.9849 46.1719C83.9683 46.0332 81.3562 43.3056 81.3677 40.289C81.3793 37.1106 84.3034 34.3135 87.4587 34.4638C90.4753 34.6025 93.0874 37.3417 93.0758 40.3468Z" fill="#FFE8C8"/>
<path d="M49.6992 34.4982C52.8545 34.5098 55.6399 37.4223 55.4897 40.5545C55.351 43.5596 52.6233 46.1601 49.6414 46.137C46.4861 46.1254 43.7006 43.2128 43.8393 40.0806C43.9896 37.0871 46.7172 34.4751 49.6992 34.4982Z" fill="#FFE8C8"/>
<path d="M93.0756 96.5643C93.1218 99.7427 90.2439 102.574 87.0771 102.494C84.0605 102.413 81.4022 99.7197 81.3675 96.7031C81.3213 93.5246 84.1876 90.6929 87.366 90.7854C90.3826 90.8663 93.0294 93.5477 93.0756 96.5643Z" fill="#FFE8C8"/>
<path d="M53.6406 105.683C54.1145 102.378 55.9869 100.609 59.3155 100.644C62.4939 100.679 64.817 103.383 64.4125 106.573C63.9849 109.913 61.9045 111.589 58.6105 111.358C55.2472 111.115 53.7331 108.943 53.6406 105.683Z" fill="#FFE8C8"/>
<path d="M105.985 83.3184C102.68 83.0295 100.75 81.3074 100.588 77.9556C100.438 74.7656 103.026 72.2229 106.216 72.4541C109.545 72.6968 111.441 74.65 111.371 77.9787C111.313 81.3305 109.279 83.0411 105.985 83.3184Z" fill="#FFE8C8"/>
<path d="M36.2917 77.8055C36.0374 81.1111 34.3615 83.1452 30.9635 83.1684C27.6002 83.1915 25.6353 81.296 25.5891 77.9211C25.5544 74.5578 27.4615 72.6045 30.8248 72.5467C34.2228 72.5005 35.9681 74.4884 36.2917 77.8055Z" fill="#FFE8C8"/>
<path d="M83.2977 105.96C83.055 109.231 81.3791 111.3 78.0273 111.404C74.7102 111.497 72.7222 109.647 72.4333 106.307C72.1559 103.117 74.6755 100.494 77.8655 100.609C81.2172 100.736 82.9625 102.643 83.2977 105.96Z" fill="#FFE8C8"/>
<path d="M105.905 64.549C102.588 64.2023 100.693 62.4339 100.589 59.0821C100.496 55.8922 103.131 53.3841 106.321 53.6846C109.65 53.9967 111.499 55.9846 111.384 59.3017C111.257 62.6651 109.176 64.3178 105.905 64.549Z" fill="#FFE8C8"/>
<path d="M31.1254 53.708C34.431 54.1125 36.338 55.9387 36.2109 59.302C36.0837 62.6769 34.038 64.5146 30.6978 64.399C27.3229 64.2835 25.4967 62.2377 25.6008 58.8859C25.7048 55.4879 27.8083 53.8814 31.1254 53.708Z" fill="#FFE8C8"/>
<path d="M64.4924 30.8114C64.1341 34.3366 62.3773 36.3245 58.9909 36.2668C55.616 36.209 53.6974 34.2326 53.7436 30.8577C53.7898 27.4828 55.7778 25.5757 59.1411 25.5988C62.5622 25.622 64.1803 27.7255 64.4924 30.8114Z" fill="#FFE8C8"/>
<path d="M83.2623 30.9962C82.9503 34.2902 81.2166 36.1973 77.8648 36.3128C74.6633 36.4284 72.1899 33.851 72.4557 30.6495C72.7216 27.3208 74.6864 25.4831 78.0035 25.5756C81.3553 25.6681 83.0196 27.7138 83.2623 30.9962Z" fill="#FFE8C8"/>
<path d="M40.4292 110.965C37.4819 110.63 35.5171 109.081 35.4477 106.123C35.3899 103.175 37.2392 101.257 40.1749 101.187C43.1222 101.118 45.0408 102.979 45.1101 105.915C45.2026 108.873 43.2724 110.48 40.4292 110.965Z" fill="#FFE8C8"/>
<path d="M68.5264 120.374C65.6254 120.027 63.649 118.478 63.5797 115.508C63.5219 112.549 65.3942 110.619 68.3299 110.538C71.2887 110.469 73.2189 112.341 73.2998 115.288C73.3923 118.282 71.4621 119.9 68.5264 120.374Z" fill="#FFE8C8"/>
<path d="M115.729 63.5318C118.352 63.9595 120.144 65.5313 120.306 68.4786C120.444 71.1484 117.682 73.749 115.07 73.3907C112.192 72.9977 110.505 71.2062 110.47 68.259C110.424 65.7394 112.99 63.4625 115.729 63.5318Z" fill="#FFE8C8"/>
<path d="M26.4443 68.432C25.9704 71.4717 24.3523 73.3672 21.405 73.2863C18.4809 73.2054 16.6316 71.2983 16.701 68.3626C16.7703 65.4385 18.6889 63.6008 21.6246 63.6586C24.5835 63.7163 26.0629 65.7274 26.4443 68.432Z" fill="#FFE8C8"/>
<path d="M68.3761 16.6074C71.2655 16.9426 73.2304 18.4914 73.2766 21.4502C73.3344 24.3974 71.4736 26.316 68.5379 26.3738C65.5906 26.4316 63.6836 24.5708 63.6142 21.6351C63.5449 18.6763 65.4635 17.0697 68.3761 16.6074Z" fill="#FFE8C8"/>
<path d="M45.2025 30.8576C44.8789 33.7355 43.3417 35.6772 40.3944 35.7466C37.4587 35.8043 35.5517 33.9667 35.4824 31.0425C35.413 28.1068 37.2623 26.1998 40.1864 26.1304C43.1337 26.0495 44.7402 27.945 45.2025 30.8576Z" fill="#FFE8C8"/>
<path d="M101.571 106.111C101.086 109.035 99.4676 110.965 96.4972 110.884C93.55 110.803 91.6776 108.873 91.747 105.914C91.8279 102.967 93.758 101.095 96.7168 101.164C99.6872 101.222 101.236 103.21 101.571 106.111Z" fill="#FFE8C8"/>
<path d="M96.532 25.9688C99.433 26.3155 101.409 27.8642 101.479 30.8346C101.537 33.7934 99.6641 35.7236 96.7169 35.7929C93.7581 35.8623 91.8279 33.9784 91.7586 31.0311C91.6661 28.0607 93.5963 26.4426 96.532 25.9688Z" fill="#FFE8C8"/>
<path d="M30.8597 91.71C33.8994 92.1723 35.7949 93.7904 35.714 96.7376C35.6446 99.6618 33.7376 101.511 30.8019 101.453C27.8778 101.384 26.0401 99.4768 26.0863 96.5411C26.1441 93.5708 28.1436 92.0914 30.8597 91.71Z" fill="#FFE8C8"/>
<path d="M106.066 45.2819C103.165 44.9352 101.189 43.3749 101.131 40.4045C101.073 37.4457 102.946 35.5155 105.905 35.4462C108.863 35.3768 110.782 37.2608 110.863 40.208C110.932 43.2015 108.991 44.8196 106.066 45.2819Z" fill="#FFE8C8"/>
<path d="M35.8174 40.1738C35.4823 43.121 33.9451 45.0743 30.9978 45.1321C28.0621 45.1899 26.1551 43.3406 26.0857 40.4165C26.0164 37.4808 27.8656 35.5853 30.7898 35.5044C33.7601 35.4235 35.3436 37.3537 35.8174 40.1738Z" fill="#FFE8C8"/>
<path d="M110.978 96.7378C110.504 99.6157 108.921 101.407 105.973 101.546C103.304 101.685 100.715 98.9107 101.073 96.287C101.477 93.4091 103.28 91.583 106.216 91.7332C109.14 91.895 110.666 93.8599 110.978 96.7378Z" fill="#FFE8C8"/>
<path d="M115.521 45.1895C118.399 45.49 119.971 47.0734 119.832 49.9513C119.682 52.8639 117.867 54.3202 115.024 54.1468C112.354 53.985 110.886 52.3322 110.921 49.6508C110.955 46.7497 112.678 45.3397 115.521 45.1895Z" fill="#FFE8C8"/>
<path d="M115.497 91.8025C112.492 91.5251 110.851 90.0341 110.897 87.1793C110.944 84.3245 112.596 82.7296 115.44 82.7642C118.294 82.7989 119.866 84.4633 119.866 87.3065C119.855 90.2191 118.086 91.5598 115.497 91.8025Z" fill="#FFE8C8"/>
<path d="M21.3357 91.7215C18.5041 91.3979 16.9553 89.826 17.1171 86.9713C17.2789 84.0818 19.0819 82.6602 21.9021 82.8451C24.5604 83.0185 25.982 84.6712 25.9242 87.318C25.878 90.219 24.1558 91.5828 21.3357 91.7215Z" fill="#FFE8C8"/>
<path d="M87.2151 17.0576C90.0583 17.2772 91.7111 18.7566 91.6533 21.6461C91.5839 24.5471 89.8734 26.0612 87.0186 25.9803C84.3487 25.8994 82.8347 24.3275 82.7884 21.6577C82.7422 18.7566 84.3718 17.2772 87.2151 17.0576Z" fill="#FFE8C8"/>
<path d="M21.8096 54.1815C18.8046 54.0082 17.1056 52.5981 17.1056 49.7086C17.1171 46.8307 18.7468 45.2589 21.6131 45.2935C24.2715 45.3166 25.8087 46.8307 25.9242 49.489C26.0514 52.39 24.4217 53.8463 21.8096 54.1815Z" fill="#FFE8C8"/>
<path d="M91.7583 115.403C91.4231 118.454 89.8166 120.015 86.9502 119.853C84.0376 119.691 82.5929 117.853 82.7779 115.01C82.9512 112.329 84.6271 110.896 87.297 110.93C90.2442 110.988 91.5503 112.78 91.7583 115.403Z" fill="#FFE8C8"/>
<path d="M49.8253 119.911C46.7855 119.657 45.1559 118.142 45.2484 115.253C45.3408 112.352 47.0745 110.861 49.9293 110.965C52.5991 111.069 54.0786 112.664 54.1133 115.334C54.1595 118.281 52.4258 119.645 49.8253 119.911Z" fill="#FFE8C8"/>
<path d="M54.149 21.7269C53.8254 24.5586 52.2535 26.1073 49.3987 25.9455C46.5093 25.7837 45.0877 23.9807 45.2726 21.1605C45.446 18.5022 47.0988 17.0806 49.7455 17.1384C52.6465 17.1846 54.0104 18.9068 54.149 21.7269Z" fill="#FFE8C8"/>
<path d="M124.733 81.9434C122.167 81.4465 120.583 80.0364 120.803 77.563C121.011 75.159 122.675 73.6565 125.172 73.9107C127.403 74.1303 128.824 75.6791 128.743 77.956C128.651 80.4409 126.963 81.6429 124.733 81.9434Z" fill="#FFE8C8"/>
<path d="M12.1481 81.793C9.75565 81.5503 8.21844 80.2211 8.27623 77.7362C8.32246 75.4709 9.79031 74.0146 12.0672 74.003C14.5406 73.9914 16.0547 75.5171 16.0084 78.002C15.9507 80.2558 14.4713 81.5156 12.1481 81.793Z" fill="#FFE8C8"/>
<path d="M77.7152 8.19238C79.8996 8.34263 81.4946 9.46375 81.7142 11.7522C81.9454 14.2603 80.5006 15.913 78.0388 16.0517C75.5539 16.1904 73.9705 14.6417 73.9358 12.1567C73.9011 9.86828 75.3689 8.56223 77.7152 8.19238Z" fill="#FFE8C8"/>
<path d="M128.823 58.9552C128.592 61.3477 127.321 63.012 124.848 63.0583C122.386 63.1045 120.825 61.5211 120.791 59.0592C120.768 56.7939 122.247 55.2683 124.478 55.118C126.951 54.9562 128.35 56.505 128.823 58.9552Z" fill="#FFE8C8"/>
<path d="M12.0194 55.1641C14.1807 55.3028 15.7526 56.4007 15.9722 58.6776C16.2034 61.1626 14.7817 62.8038 12.3314 62.9425C9.86962 63.0696 8.29777 61.5671 8.26309 59.0822C8.23998 56.8053 9.67315 55.5108 12.0194 55.1641Z" fill="#FFE8C8"/>
<path d="M63.0827 124.708C62.84 127.077 61.557 128.719 59.1068 128.73C56.6681 128.742 55.1309 127.181 55.1309 124.731C55.1309 122.477 56.6103 120.986 58.8294 120.859C61.2797 120.721 62.6666 122.246 63.0827 124.708Z" fill="#FFE8C8"/>
<path d="M63.025 12.0882C62.8516 14.3074 61.6727 15.8677 59.3958 16.041C56.8993 16.226 55.2465 14.7581 55.1656 12.2847C55.0731 9.7998 56.645 8.23948 59.1415 8.25104C61.4184 8.27416 62.7014 9.76511 63.025 12.0882Z" fill="#FFE8C8"/>
<path d="M77.842 128.81C75.438 128.498 73.8314 127.169 73.8892 124.707C73.947 122.268 75.5651 120.766 78.0154 120.847C80.246 120.928 81.7254 122.419 81.7717 124.661C81.8295 127.134 80.2692 128.464 77.842 128.81Z" fill="#FFE8C8"/>
<path d="M115.336 109.613C113.013 109.428 111.718 108.179 111.822 105.799C111.915 103.637 113.221 102.435 115.37 102.458C117.763 102.481 119.011 103.868 118.919 106.226C118.849 108.411 117.509 109.474 115.336 109.613Z" fill="#FFE8C8"/>
<path d="M105.65 17.959C108.169 18.0861 109.533 19.2188 109.51 21.6113C109.487 23.761 108.273 25.0208 106.124 25.0671C103.766 25.1249 102.46 23.8419 102.448 21.4841C102.46 19.2997 103.777 18.2479 105.65 17.959Z" fill="#FFE8C8"/>
<path d="M106.043 111.809C108.216 111.994 109.511 113.103 109.546 115.288C109.58 117.657 108.286 118.986 105.905 118.963C103.743 118.94 102.495 117.703 102.437 115.53C102.391 113.138 103.732 111.947 106.043 111.809Z" fill="#FFE8C8"/>
<path d="M115.059 27.3213C117.578 27.4484 118.954 28.5926 118.931 30.9967C118.908 33.158 117.694 34.4294 115.521 34.4756C113.152 34.5334 111.823 33.2389 111.823 30.858C111.823 28.6736 113.14 27.5987 115.059 27.3213Z" fill="#FFE8C8"/>
<path d="M34.4307 21.6228C34.2227 23.7495 33.1015 25.0324 30.9287 25.0208C28.5362 25.0093 27.2879 23.5992 27.4382 21.2645C27.5653 19.1148 28.9407 17.9821 31.0905 18.0746C33.2633 18.167 34.3036 19.4962 34.4307 21.6228Z" fill="#FFE8C8"/>
<path d="M21.6482 102.471C23.7864 102.702 25.0462 103.846 25.0115 106.042C24.9653 108.458 23.5321 109.683 21.1743 109.509C19.0015 109.359 17.8919 107.949 18.0075 105.788C18.1462 103.592 19.4984 102.563 21.6482 102.471Z" fill="#FFE8C8"/>
<path d="M99.9526 12.0419C99.7793 13.9837 98.7622 15.3244 96.8205 15.4284C94.6591 15.544 93.3069 14.2264 93.33 12.0651C93.3531 10.1233 94.6361 8.89819 96.5893 8.87508C98.5657 8.86352 99.6175 10.1464 99.9526 12.0419Z" fill="#FFE8C8"/>
<path d="M43.6081 12.1684C43.3308 14.0639 42.3021 15.393 40.372 15.4046C38.2453 15.4161 36.9162 14.0639 37.0433 11.9372C37.1589 10.0533 38.4534 8.82815 40.4066 8.90905C42.3484 8.98996 43.3539 10.2844 43.6081 12.1684Z" fill="#FFE8C8"/>
<path d="M30.894 111.855C33.0438 112.006 34.3729 113.092 34.4076 115.288C34.4423 117.681 33.09 118.987 30.7091 118.894C28.5247 118.813 27.3573 117.473 27.4035 115.311C27.4498 113.115 28.7442 112.029 30.894 111.855Z" fill="#FFE8C8"/>
<path d="M124.744 100.032C122.676 99.7427 121.335 98.6101 121.45 96.4372C121.554 94.507 122.814 93.2819 124.756 93.305C126.906 93.3397 128.189 94.6688 128.096 96.8301C128.004 98.7834 126.698 99.8005 124.744 100.032Z" fill="#FFE8C8"/>
<path d="M11.8812 93.293C13.9501 93.5241 15.2908 94.5297 15.3717 96.4483C15.4641 98.5749 14.135 99.9272 12.0083 99.881C10.1013 99.8463 8.88773 98.5518 8.87617 96.6216C8.86461 94.6452 10.2284 93.6975 11.8812 93.293Z" fill="#FFE8C8"/>
<path d="M21.6476 34.4868C19.3014 34.2326 18.0185 33.123 18.0416 30.9501C18.0647 28.5577 19.4748 27.321 21.821 27.4712C23.9708 27.6099 25.0919 28.9853 24.9994 31.1351C24.907 33.3311 23.4969 34.2788 21.6476 34.4868Z" fill="#FFE8C8"/>
<path d="M124.559 43.6874C122.56 43.2598 121.242 42.0924 121.485 39.9426C121.693 38.0703 122.999 36.8683 124.929 37.0069C127.033 37.1688 128.269 38.5441 128.05 40.6708C127.853 42.5778 126.524 43.5718 124.559 43.6874Z" fill="#FFE8C8"/>
<path d="M43.6429 124.927C43.2962 126.823 42.2328 128.094 40.268 128.071C38.3147 128.048 37.0434 126.811 37.0318 124.869C37.0203 122.708 38.3841 121.402 40.5338 121.529C42.4524 121.633 43.4695 122.985 43.6429 124.927Z" fill="#FFE8C8"/>
<path d="M96.3804 121.379C98.6341 121.703 99.9864 122.801 99.9055 124.95C99.8246 126.857 98.5764 128.094 96.6462 128.082C94.5196 128.071 93.2482 126.753 93.2944 124.615C93.3522 122.685 94.7391 121.76 96.3804 121.379Z" fill="#FFE8C8"/>
<path d="M15.43 40.4048C15.0717 42.3234 13.9968 43.6179 12.0204 43.5255C10.0787 43.4446 8.842 42.1501 8.91134 40.1968C8.99225 38.2551 10.2752 37.0184 12.24 37.0877C14.1933 37.1686 15.2104 38.4978 15.43 40.4048Z" fill="#FFE8C8"/>
<path d="M137.111 68.3982C136.914 70.3052 135.932 71.4032 134.129 71.3801C132.326 71.357 131.228 70.2474 131.251 68.4444C131.274 66.6414 132.384 65.5549 134.187 65.5665C136.001 65.5781 136.926 66.7338 137.111 68.3982Z" fill="#FFE8C8"/>
<path d="M89.7934 133.85C89.724 135.572 88.9843 136.566 87.528 136.705C85.8637 136.866 84.7657 135.988 84.7079 134.277C84.6501 132.578 85.6557 131.631 87.3431 131.654C88.8572 131.677 89.5391 132.694 89.7934 133.85Z" fill="#FFE8C8"/>
<path d="M65.5686 134.232C65.8344 132.209 66.8978 131.215 68.7008 131.365C70.5385 131.516 71.44 132.764 71.2551 134.544C71.0933 136.127 70.0299 137.052 68.3887 137.006C66.5395 136.959 65.7189 135.792 65.5686 134.232Z" fill="#FFE8C8"/>
<path d="M52.2302 134.162C52.0453 135.757 51.2016 136.751 49.5257 136.682C48.081 136.613 47.1794 135.688 47.1794 134.243C47.1794 132.59 48.1734 131.631 49.8262 131.689C51.2825 131.735 52.0337 132.706 52.2302 134.162Z" fill="#FFE8C8"/>
<path d="M52.1947 2.79514C51.9982 4.23988 51.2238 5.22229 49.7559 5.23385C48.08 5.24541 47.0861 4.2052 47.2248 2.54087C47.3403 1.11925 48.3228 0.217748 49.8137 0.31021C51.27 0.391115 52.0213 1.35041 52.1947 2.79514Z" fill="#FFE8C8"/>
<path d="M71.2651 2.78377C71.034 4.81796 69.9013 5.71947 68.0867 5.5461C66.4455 5.38429 65.5671 4.27473 65.6711 2.63352C65.7867 0.726469 67.0003 -0.151922 68.8149 0.0214459C70.4676 0.16014 71.2073 1.30437 71.2651 2.78377Z" fill="#FFE8C8"/>
<path d="M89.8043 2.68016C89.5038 4.48319 88.5676 5.4425 86.9264 5.26913C85.5279 5.11888 84.6264 4.14802 84.7304 2.69173C84.8345 1.03896 85.8862 0.137442 87.5274 0.287694C88.9606 0.41483 89.6194 1.47814 89.8043 2.68016Z" fill="#FFE8C8"/>
<path d="M5.25941 49.6967C5.08604 51.1415 4.31168 52.1355 2.85539 52.1586C1.1795 52.1932 0.18552 51.1646 0.28954 49.4887C0.382003 48.0555 1.36441 47.1656 2.84382 47.2234C4.32322 47.3043 5.07448 48.2636 5.25941 49.6967Z" fill="#FFE8C8"/>
<path d="M136.753 49.4312C136.638 51.2805 135.806 52.2513 134.118 52.2513C132.65 52.2513 131.726 51.4192 131.61 49.9744C131.471 48.3448 132.292 47.2699 133.98 47.1427C135.679 47.0272 136.488 48.0443 136.753 49.4312Z" fill="#FFE8C8"/>
<path d="M5.51318 68.4905C5.3976 70.2588 4.4383 71.2875 2.58904 71.2181C0.947828 71.1603 0.0116521 70.1779 9.42644e-05 68.5367C-0.0114636 66.6759 1.0403 65.6819 2.88956 65.7397C4.54233 65.7859 5.38604 66.7915 5.51318 68.4905Z" fill="#FFE8C8"/>
<path d="M5.25892 87.3183C5.03932 88.7515 4.2534 89.7339 2.78556 89.7108C1.10967 89.6876 0.127243 88.6359 0.289053 86.9716C0.427747 85.5615 1.43327 84.66 2.91267 84.7756C4.36897 84.8911 5.13178 85.862 5.25892 87.3183Z" fill="#FFE8C8"/>
<path d="M136.742 87.1909C136.638 88.8205 135.806 89.803 134.118 89.803C132.65 89.803 131.726 88.9708 131.61 87.5261C131.471 85.8964 132.292 84.8099 133.98 84.6944C135.644 84.5903 136.545 85.5265 136.742 87.1909Z" fill="#FFE8C8"/>
</svg>
